<?xml version="1.0" standalone="no"?>
<!DOCTYPE svg PUBLIC "-//W3C//DTD SVG 1.0//EN" "http://www.w3.org/TR/2001/REC-SVG-20010904/DTD/svg10.dtd">
<svg xmlns="http://www.w3.org/2000/svg" xmlns:xlink="http://www.w3.org/1999/xlink" id="body_1" width="32" height="32">

<g transform="matrix(1.3333334 0 0 1.3333334 0 0)">
	<g transform="matrix(1 0 0 1 -0 -1.566375)">
        <path transform="matrix(1 0 0 1 40 81.566376)"  d="M-28 -76.93359C -32.412346 -76.93359 -36 -73.34583 -36 -68.93359C -36 -68.257614 -35.91455 -67.58605 -35.746094 -66.93359L-35.746094 -66.93359L-38.5 -66.93359L-38.5 -59.066406L-17.5 -59.066406L-17.5 -66.93359L-20.253906 -66.93359C -20.085743 -67.58598 -20 -68.25804 -20 -68.93359C -20 -73.34583 -23.587652 -76.93359 -28 -76.93359zM-28 -75.93359C -27.710499 -75.93359 -27.413486 -75.80401 -27.091797 -75.48828C -26.770107 -75.172554 -26.447983 -74.67522 -26.173828 -74.03906C -25.829468 -73.240005 -25.574549 -72.209724 -25.421875 -71.06641L-25.421875 -71.06641L-30.578125 -71.06641C -30.425451 -72.209724 -30.170532 -73.240005 -29.826172 -74.03906C -29.552017 -74.67522 -29.229893 -75.172554 -28.908203 -75.48828C -28.586514 -75.80401 -28.2895 -75.93359 -28 -75.93359zM-30.089844 -75.61719C -30.333117 -75.27254 -30.552475 -74.88029 -30.74414 -74.43555C -31.148426 -73.49744 -31.43002 -72.338196 -31.58789 -71.06641L-31.58789 -71.06641L-34.66797 -71.06641C -33.97727 -73.23395 -32.263615 -74.940315 -30.089844 -75.61719zM-25.910156 -75.61719C -23.736383 -74.940315 -22.02273 -73.23395 -21.332031 -71.06641L-21.332031 -71.06641L-24.41211 -71.06641C -24.56998 -72.338196 -24.851574 -73.49744 -25.25586 -74.43555C -25.447525 -74.88029 -25.666883 -75.27254 -25.910156 -75.61719zM-34.90039 -70.06641L-31.683594 -70.06641C -31.707264 -69.693474 -31.732424 -69.321465 -31.732424 -68.93359C -31.732424 -68.21844 -31.678003 -67.586334 -31.593752 -66.93359L-31.593752 -66.93359L-34.701176 -66.93359C -34.894688 -67.58242 -35.000004 -68.255394 -35.000004 -68.93359C -35.000004 -69.32037 -34.960453 -69.696846 -34.900394 -70.06641zM-30.683594 -70.06641L-25.316406 -70.06641C -25.290997 -69.695175 -25.267576 -69.321686 -25.267576 -68.93359C -25.267576 -68.21269 -25.321276 -67.59709 -25.412107 -66.93359L-25.412107 -66.93359L-30.58789 -66.93359C -30.67871 -67.59708 -30.732422 -68.21275 -30.732422 -68.93359C -30.732422 -69.321686 -30.709011 -69.695175 -30.683592 -70.06641zM-24.316406 -70.06641L-21.09961 -70.06641C -21.039549 -69.696846 -21 -69.32037 -21 -68.93359C -21 -68.25518 -21.10525 -67.58246 -21.298828 -66.93359L-21.298828 -66.93359L-24.40625 -66.93359C -24.32209 -67.58637 -24.267578 -68.21883 -24.267578 -68.93359C -24.267578 -69.321465 -24.292738 -69.69347 -24.316408 -70.06641zM-37.5 -65.93359L-18.5 -65.93359L-18.5 -60.066406L-37.5 -60.066406z" stroke="none" fill="#000000" fill-rule="nonzero" />
		<g transform="matrix(0.90852755 0 0 0.86755776 1.0976692 2.4589417)">
            <path d="M10.271484 16.451172C 9.932292 16.612629 9.5931 16.77409 9.253906 16.935547C 9.859207 18.199638 10.463488 19.464218 11.068359 20.728516C 11.391928 20.21875 11.715494 19.708984 12.0390625 19.199219C 12.4056 19.700521 12.772136 20.201822 13.138673 20.703125C 13.673853 19.436209 14.208768 18.169178 14.744142 16.902344C 14.398438 16.75586 14.052734 16.609375 13.707031 16.46289C 13.42769 17.11922 13.150961 17.776659 12.873047 18.433594C 12.572917 18.023438 12.272786 17.613281 11.972656 17.203125C 11.717448 17.604818 11.462239 18.00651 11.207031 18.408203C 10.895136 17.75588 10.582457 17.103933 10.271484 16.451172z" stroke="none" fill="#000000" fill-rule="nonzero" />
			<g transform="matrix(1 0 0 1 -0.06323433 -0)">
                <path d="M4.265625 16.451172C 3.9264324 16.61263 3.5872395 16.77409 3.2480469 16.935547C 3.8533478 18.199638 4.4576287 19.464218 5.0625 20.728516C 5.386068 20.21875 5.7096353 19.708984 6.033203 19.199219C 6.3997397 19.700521 6.766276 20.201822 7.1328125 20.703125C 7.6679926 19.436209 8.202907 18.16918 8.738281 16.902344C 8.392578 16.75586 8.046875 16.609375 7.701172 16.46289C 7.4218297 17.11922 7.145102 17.776659 6.8671875 18.433594C 6.567057 18.023438 6.2669272 17.613281 5.966797 17.203125C 5.7115884 17.604818 5.4563804 18.00651 5.201172 18.408203C 4.889277 17.75588 4.5765963 17.103935 4.265625 16.451172z" stroke="none" fill="#000000" fill-rule="nonzero" />
                <path d="M16.402344 16.451172C 16.0638 16.612629 15.725261 16.77409 15.386719 16.935547C 15.992019 18.199638 16.5963 19.464218 17.201172 20.728516C 17.52474 20.2194 17.848307 19.710287 18.171875 19.201172C 18.53776 19.701822 18.903646 20.202475 19.269531 20.703125C 19.80569 19.436348 20.337927 18.167906 20.876953 16.902344C 20.5306 16.75586 20.184246 16.609375 19.83789 16.46289C 19.561155 17.120699 19.28324 17.77801 19.00586 18.435547C 18.705729 18.02474 18.4056 17.613932 18.105469 17.203125C 17.850262 17.604818 17.59505 18.00651 17.339844 18.408203C 17.027416 17.755825 16.716194 17.102867 16.402344 16.451172z" stroke="none" fill="#000000" fill-rule="nonzero" />
			</g>
		</g>
	</g>
</g>
</svg>